<svg xmlns="http://www.w3.org/2000/svg" width="595.28" height="82.496" xml:space="preserve"><g fill="#FFF"><path d="M90.913 16.23c0 1.914-1.914 2.41-2.764 2.41h-.071c-.567 0-11.624-3.756-27.288-5.032.708.496 1.276 1.205 1.417 2.126 0 .212-.709 4.607-.709 18.428v1.134c0 11.836.071 21.122.071 21.122 0 1.347-.921 1.913-2.126 2.056-.213 0-.354.07-.567.07-1.063 0-2.197-.425-2.41-1.134-1.63-5.104-3.898-21.618-3.898-32.816 0-5.458.496-9.639 1.914-10.702 0 0 .284-.284.921-.567-.496 0-1.063 0-1.63-.071h-1.488c-13.042 0-26.153 3.827-26.153 8.363v.284c.354 2.41 3.756 2.977 7.229 2.977 3.402 0 6.804-.567 7.372-.567h.071c.921.142 1.914 1.205 1.984 1.843v.071c0 .992-2.977 1.914-6.875 2.481-1.559.283-3.26.425-4.961.425-7.088 0-14.742-2.126-15.522-7.513-.071-.213-.071-.425-.071-.638 0-6.167 11.978-14.176 34.446-14.176.921 0 1.843 0 2.764.071 24.736.638 37.352 8.009 37.848 8.009.354.213.496.638.496 1.205v.141z"/><path d="M102.612 46.708c-1.063 1.984-4.182 8.505-9.498 8.505-9.923 0-4.465-14.459-8.08-14.459-3.473 0-8.009 12.403-8.434 13.537v.143c-.284.779-2.197.779-2.197.779s-1.843 0-2.056-.779c-.071-.071-1.276-9.994-1.276-28.068 0-6.591.425-14.104.851-15.026.354-.496 2.339-1.417 3.048-1.417 1.134 0 2.268.851 2.481 1.205.142.496.354 3.827.354 9.072 0 7.159-.425 18.215-.779 25.799 1.984-4.536 5.812-11.624 11.057-11.624 7.655 0 2.268 16.373 6.379 16.373 1.984 0 4.891-4.111 7.088-8.223.212-.425.354-.566.567-.566.496 0 .851 1.275.921 2.552v.142c0 .779-.142 1.559-.426 2.055z"/><path d="M129.76 46.708c-.992 1.984-4.111 8.505-9.498 8.505-2.197 0-3.756-.992-4.749-2.835-1.985 1.701-4.607 2.835-7.442 2.835-6.237 0-11.34-4.678-11.34-10.419s5.104-10.419 11.34-10.419c2.268 0 4.395.709 6.167 1.843.071-.496.142-.78.213-.921.425-.638.779-.921 2.41-.921 1.559 0 2.623.213 2.977.921.071.142.142.78.142 1.63 0 2.055-.213 5.74-.213 7.938 0 3.189.354 5.883 1.843 5.883 2.056 0 4.891-4.111 7.088-8.223.212-.425.354-.566.567-.566.496 0 .921 1.275.921 2.552 0 .779-.142 1.63-.426 2.197zm-15.876-2.269c-.142-2.977-1.914-5.387-5.812-5.387-2.551 0-4.678 2.552-4.678 5.741 0 3.118 2.126 5.741 4.678 5.741 4.04 0 5.812-2.552 5.812-5.741v-.354z"/><path d="M157.617 46.708c-.992 1.984-4.111 8.505-9.427 8.505-9.994 0-4.465-14.459-8.08-14.459-3.473 0-8.08 12.971-8.434 14.034l-.071.07c-.213.354-2.126.354-2.126.354s-1.843 0-2.056-.354c-.071-.07-1.347-5.104-1.347-12.97 0-1.63.425-6.45.78-6.875.425-.283 2.41-.638 3.119-.638h.142c1.134 0 2.126.354 2.339.496.142.284.354 3.189.354 4.182 0 1.701-.142 3.827-.283 5.954 2.055-4.536 5.741-10.632 10.631-10.632 7.655 0 2.268 16.373 6.379 16.373 1.985 0 4.891-4.111 7.088-8.223.212-.425.283-.566.567-.566.496 0 .851 1.275.851 2.552-.001.779-.072 1.63-.426 2.197z"/><path d="M182.922 46.708c-1.347 2.693-5.245 8.505-11.978 8.505 0 0-6.167 0-9.639-6.379.78-.425 8.363-3.261 8.363-7.017 0-1.275-.779-2.268-2.551-2.268-4.607 0-8.293 7.301-9.001 13.467-.071.567-.071.992-.071 1.205v.213c-.284.779-2.197.779-2.197.779s-1.843 0-2.056-.779c-.071-.071-1.276-9.994-1.276-28.068 0-6.591.425-14.104.851-15.026.354-.496 2.339-1.417 3.048-1.417 1.134 0 2.268.851 2.48 1.205.142.496.354 3.827.354 9.072 0 5.954-.283 14.53-.567 21.688 1.984-3.544 5.387-7.513 10.703-7.513 3.827 0 6.166 2.481 6.166 5.528 0 0 0 6.096-7.513 8.931 0 .071 1.205 1.701 3.473 1.701 5.032 0 7.868-3.261 10.419-8.01.213-.425.284-.566.567-.566.496 0 .85 1.275.85 2.552 0 .779-.071 1.63-.425 2.197z"/><path d="M203.408 46.708c-1.347 2.693-5.245 8.505-11.979 8.505-5.812 0-7.087-2.126-7.371-2.48-.212-.354-.354-1.347-.354-2.197 0-.78.071-1.418.354-1.418.567 0 1.914 1.488 3.828 1.488 2.126 0 3.686-1.771 3.686-3.827 0-3.473-3.473-4.536-5.387-8.009 0 0-.284.851-.567 1.843-.567 2.055-3.898 9.355-5.458 9.355-.638 0-.921-2.197-.921-2.835 0-.496 2.623-3.969 3.828-7.867.708-2.268.851-3.615.851-4.536 0-.638-.071-1.063-.071-1.347 0-.78 2.197-2.056 3.898-2.056h.071c1.489 0 2.197.071 2.197.851 0 4.961 7.3 7.229 7.3 13.68 0 1.771-.779 3.048-1.347 3.756 2.835-1.204 4.678-3.756 6.45-7.088.212-.425.283-.566.567-.566.496 0 .851 1.275.851 2.552-.001.778-.072 1.629-.426 2.196zM240.762 46.708c-.921 1.771-4.111 6.804-8.576 7.867 2.977 3.969 5.599 9.072 5.599 14.742 0 6.662-3.119 10.348-6.095 10.348-6.804 0-10.986-3.897-10.986-33.879 0-17.01 1.347-30.619 1.63-34.163.142-1.205 1.701-1.701 3.26-1.772h.142c1.488 0 3.402.78 3.402 2.339 0 .921-2.339 19.279-2.339 28.634v1.842c.071 1.772.567 7.301 4.395 7.301 3.756 0 6.308-3.331 8.505-7.442.213-.425.354-.566.567-.566.496 0 .85 1.275.921 2.552v.142c0 .779-.142 1.559-.425 2.055zm-13.822 6.875c.425 13.75 1.63 20.696 4.607 20.696 1.985 0 2.268-2.056 2.268-4.82 0-7.513-4.11-13.041-6.875-15.876z"/><path d="M246.22 55.213c-6.237 0-11.34-4.678-11.34-10.419s5.104-10.419 11.34-10.419c6.308 0 11.412 4.678 11.412 10.419s-5.104 10.419-11.412 10.419zm0-16.16c-2.551 0-4.678 2.552-4.678 5.741 0 3.118 2.126 5.741 4.678 5.741 2.623 0 4.749-2.623 4.749-5.741 0-3.19-2.127-5.741-4.749-5.741zM282.936 46.708c-.992 1.984-4.111 8.505-9.427 8.505-3.615 0-5.458-2.48-5.458-5.245 0-2.126 1.63-5.528 2.48-7.442.071-.212.142-.354.142-.496 0-.354-.354-.567-.78-.567-1.63-.071-4.182-.567-4.749-.851-.567 2.055-3.898 9.355-5.458 9.355-.638 0-.921-2.197-.921-2.835 0-.496 2.623-3.969 3.828-7.867-.425-.354-2.41-1.488-2.41-4.891 0-1.347.921-3.615 2.693-3.615 2.268 0 3.331 1.984 3.331 4.749 1.134.779 5.032.992 6.804.992 2.835 0 4.323 1.205 4.323 3.473 0 2.197-3.26 8.081-3.26 9.852 0 .496.213.922.709.922 2.055 0 4.891-4.111 7.087-8.223.213-.425.354-.566.567-.566.496 0 .921 1.275.921 2.552.003.78-.139 1.631-.422 2.198zM324.4 46.708c-1.347 2.693-5.244 8.505-11.978 8.505-5.812 0-7.088-2.126-7.371-2.48-.213-.354-.354-1.347-.354-2.197 0-.78.07-1.418.354-1.418.566 0 1.913 1.488 3.827 1.488 2.126 0 3.686-1.771 3.686-3.827 0-3.473-3.474-4.536-5.387-8.009 0 0-.283.851-.567 1.843-.566 2.055-3.898 9.355-5.457 9.355-.638 0-.922-2.197-.922-2.835 0-.496 2.623-3.969 3.827-7.867.709-2.268.851-3.615.851-4.536 0-.638-.07-1.063-.07-1.347 0-.78 2.197-2.056 3.898-2.056h.07c1.488 0 2.197.071 2.197.851 0 4.961 7.301 7.229 7.301 13.68 0 1.771-.78 3.048-1.347 3.756 2.835-1.204 4.678-3.756 6.449-7.088.213-.425.284-.566.567-.566.496 0 .851 1.275.851 2.552.001.778-.07 1.629-.425 2.196z"/><path d="M345.239 26.508c-.354.142-5.032.283-6.521.283-2.836 0-6.45-.071-9.994-.212-.142 5.458-.567 11.766-.567 16.94v2.551c0 2.623.354 4.679 1.56 4.679 2.056 0 4.891-4.111 7.088-8.223.213-.425.354-.566.567-.566.496 0 .921 1.275.921 2.552 0 .779-.142 1.63-.425 2.197-.993 1.984-4.111 8.505-9.427 8.505-5.812 0-5.954-12.12-5.954-12.616a324.07 324.07 0 0 1-.425-16.231v-.071c-4.607-.212-8.151-.496-8.222-.567-.639-.212-.639-1.843-.639-1.843s0-1.63.567-1.843c.071 0 3.118-.425 8.363-.78.142-4.891.496-9.285.78-9.923.425-.496 2.409-1.417 3.118-1.417 1.134 0 2.269.851 2.41 1.205.212.496.354 3.827.354 9.072v.78c1.7-.071 3.473-.071 5.386-.071 2.623 0 10.207.354 10.916.709.354.354.992 2.126.992 2.764.003.921-.636 1.913-.848 2.126z"/><path d="M345.807 55.213c-6.237 0-11.341-4.678-11.341-10.419s5.104-10.419 11.341-10.419c6.308 0 11.411 4.678 11.411 10.419s-5.104 10.419-11.411 10.419zm0-16.16c-2.552 0-4.678 2.552-4.678 5.741 0 3.118 2.126 5.741 4.678 5.741 2.622 0 4.748-2.623 4.748-5.741 0-3.19-2.126-5.741-4.748-5.741zM370.048 55.213c-1.914 0-3.757-.567-5.387-1.418.212 5.458.425 11.128.496 15.451v3.544c0 3.189-.071 5.175-.213 5.528-.142.354-1.205 1.205-2.339 1.205h-.071c-.708 0-2.693-.851-3.118-1.347-.426-.921-.992-8.363-1.063-15.025 0-1.772-.07-3.474-.07-5.104 0-14.813.992-22.893 1.062-22.964.213-.78 1.985-.851 1.985-.851s1.913 0 2.196.851c0 0 .071.496.143 1.347 1.843-1.276 4.04-2.056 6.379-2.056 6.308 0 11.411 4.678 11.411 10.419s-5.104 10.42-11.411 10.42zm0-16.16c-3.97 0-5.741 2.552-5.741 5.741 0 3.118 1.771 5.741 5.741 5.741 2.622 0 4.748-2.623 4.748-5.741 0-3.19-2.126-5.741-4.748-5.741zM394.29 55.213c-1.914 0-3.757-.567-5.387-1.418.212 5.458.425 11.128.496 15.451v3.544c0 3.189-.071 5.175-.213 5.528-.142.354-1.205 1.205-2.339 1.205h-.071c-.708 0-2.693-.851-3.118-1.347-.426-.921-.992-8.363-1.063-15.025 0-1.772-.07-3.474-.07-5.104 0-14.813.992-22.893 1.062-22.964.213-.78 1.985-.851 1.985-.851s1.913 0 2.196.851c0 0 .071.496.143 1.347 1.843-1.276 4.04-2.056 6.379-2.056 6.308 0 11.411 4.678 11.411 10.419s-5.103 10.42-11.411 10.42zm0-16.16c-3.97 0-5.741 2.552-5.741 5.741 0 3.118 1.771 5.741 5.741 5.741 2.622 0 4.748-2.623 4.748-5.741 0-3.19-2.126-5.741-4.748-5.741zM415.979 24.594c-.071 2.481-1.984 4.465-4.253 4.465h-.142c-2.339-.071-4.04-2.055-4.04-4.607v-.212c.071-2.552 1.914-4.465 4.182-4.465h.213c2.269.071 4.04 2.126 4.04 4.607v.212zm7.939 22.114c-.992 1.984-4.111 8.505-9.498 8.505-4.891 0-6.804-5.104-6.804-11.837 0-1.63.213-7.513.566-8.08.426-.638 1.205-.921 2.836-.921 1.559 0 2.622.213 2.977.921.07.142.142.78.142 1.63 0 2.055-.213 5.74-.213 7.938 0 3.189.354 5.883 1.843 5.883 1.984 0 4.891-4.111 7.088-8.223.213-.425.354-.566.567-.566.496 0 .851 1.275.921 2.552v.142c0 .78-.142 1.56-.425 2.056z"/><path d="M451.701 46.708c-.992 1.984-4.11 8.505-9.426 8.505-9.994 0-4.466-14.459-8.08-14.459-3.474 0-8.08 12.971-8.435 14.034l-.071.07c-.212.354-2.126.354-2.126.354s-1.843 0-2.056-.354c-.07-.07-1.347-5.104-1.347-12.97 0-1.63.426-6.45.78-6.875.425-.283 2.409-.638 3.118-.638h.142c1.134 0 2.127.354 2.339.496.142.284.354 3.189.354 4.182 0 1.701-.142 3.827-.283 5.954 2.056-4.536 5.741-10.632 10.632-10.632 7.654 0 2.268 16.373 6.379 16.373 1.984 0 4.89-4.111 7.087-8.223.213-.425.284-.566.567-.566.496 0 .851 1.275.851 2.552.001.779-.07 1.63-.425 2.197z"/><path d="M477.716 46.708c-2.339 4.465-5.387 7.583-8.506 10.064-.07 4.536-.283 8.931-.566 11.978-.709 8.364-5.812 10.915-9.214 10.915-4.82 0-8.151-3.969-8.151-9.284 0-7.088 5.741-10.207 12.049-14.246l-.07-2.693c-1.701 1.062-3.757 1.771-6.024 1.771-6.237 0-11.341-4.678-11.341-10.419s5.104-10.419 11.341-10.419c2.268 0 4.323.638 6.024 1.772.07-.425.142-.709.213-.851.425-.638.921-.921 2.551-.921 1.56 0 2.623.213 2.978.921.142.284.283 6.024.283 12.97v3.686c2.906-2.409 5.528-5.387 7.371-9.427.213-.425.354-.566.567-.566.496 0 .921 1.275.921 2.552-.001.779-.143 1.63-.426 2.197zm-20.484-7.655c-2.552 0-4.678 2.552-4.678 5.741 0 3.118 2.126 5.741 4.678 5.741 4.04 0 5.812-2.623 5.812-5.741 0-3.19-1.772-5.741-5.812-5.741zm6.238 21.759c-4.183 2.835-7.442 5.244-7.442 9.568 0 1.134.638 3.898 3.544 3.898 2.552 0 4.04-3.19 4.04-8.576-.001-1.346-.072-3.047-.142-4.89zM506.919 55.213c-2.339 0-4.465-.779-6.308-1.914 0 .639-.071 1.063-.071 1.135-.283.779-2.197.779-2.197.779s-1.843 0-2.055-.779c-.071-.071-1.276-9.994-1.276-28.068 0-6.591.426-14.104.851-15.026.354-.496 2.339-1.417 3.048-1.417 1.134 0 2.269.851 2.48 1.205.142.496.354 3.827.354 9.072 0 4.323-.142 10.064-.354 15.664 1.631-.921 3.474-1.488 5.528-1.488 6.237 0 11.341 4.678 11.341 10.419s-5.104 10.418-11.341 10.418zm0-16.16c-4.04 0-5.812 2.552-5.812 5.741 0 3.118 1.771 5.741 5.812 5.741 2.552 0 4.679-2.623 4.679-5.741 0-3.19-2.127-5.741-4.679-5.741zM548.1 46.708c-2.197 4.323-5.174 7.371-8.15 9.78-.071 4.679-.283 9.144-.567 12.262-.709 8.364-6.095 10.915-9.497 10.915-4.82 0-8.151-3.969-8.151-9.284 0-7.088 5.741-10.207 12.05-14.246l-.143-5.316c-1.63 2.269-3.969 4.395-7.087 4.395-4.891 0-7.159-5.104-7.159-11.837 0-1.63.284-7.513.567-8.08.425-.638 1.275-.921 2.835-.921 1.63 0 2.977.213 3.331.921.071.142.142.78.142 1.63 0 2.055-.212 5.74-.212 7.938 0 3.189.354 5.883 1.843 5.883 1.559 0 3.686-2.552 5.599-5.6v-1.56c0-5.315.071-7.726.426-8.292.425-.638 1.205-.921 2.835-.921 1.56 0 2.622.213 2.977.921.142.354.283 8.009.283 16.373 2.765-2.339 5.316-5.245 7.088-9.144.142-.425.354-.566.567-.566.496 0 .851 1.275.851 2.552v.425c-.003.637-.144 1.276-.428 1.772zm-14.175 14.104c-4.253 2.835-7.514 5.244-7.514 9.568 0 1.134.709 3.898 3.615 3.898 2.552 0 3.969-3.19 3.969-8.576 0-1.346 0-3.047-.07-4.89zM552.638 57.552c-2.197 0-3.898-1.63-3.898-3.757 0-2.126 1.701-3.756 3.898-3.756 2.269 0 4.04 1.63 4.04 3.756 0 2.127-1.772 3.757-4.04 3.757zm5.103-31.399c-1.347 7.442-2.056 16.939-2.056 18.286 0 1.56-1.134 2.126-3.189 2.126-.992 0-2.764-.142-3.118-2.268-.284-1.488-.284-2.906-.284-4.678v-2.268c0-8.08 2.127-26.012 4.891-29.343.851-1.063 3.474-1.134 3.615-1.134 3.26 0 3.969 1.63 3.969 2.765-.001 1.063-2.411 9.001-3.828 16.514zM569.083 57.552c-2.197 0-3.898-1.63-3.898-3.757 0-2.126 1.701-3.756 3.898-3.756 2.269 0 4.04 1.63 4.04 3.756 0 2.127-1.771 3.757-4.04 3.757zm5.104-31.399c-1.347 7.442-2.056 16.939-2.056 18.286 0 1.56-1.134 2.126-3.189 2.126-.992 0-2.764-.142-3.118-2.268-.284-1.488-.284-2.906-.284-4.678v-2.268c0-8.08 2.127-26.012 4.891-29.343.851-1.063 3.474-1.134 3.615-1.134 3.26 0 3.969 1.63 3.969 2.765-.001 1.063-2.411 9.001-3.828 16.514z"/></g></svg>