<svg xmlns="http://www.w3.org/2000/svg" width="247.395" height="42.595" xml:space="preserve"><g fill="#FFF"><path d="M15.662 42.042c-1.9 0-4.318-2.648-4.433-3.396-.288-1.439-.691-2.822-.691-12.205 0-9.097.691-15.544 1.555-19.632-2.362.057-8.406 2.245-9.155 2.245-.518 0-1.612-1.612-1.612-2.879 0-.345.115-.633.346-.749C2.881 4.736 13.992.878 26.658.878c12.09 0 27.059 1.324 27.059 8.809 0 0 0 7.542-13.529 8.75 14.854 1.324 14.854 10.478 14.854 10.478-.001 10.997-19.979 13.012-39.38 13.127zm9.499-20.898c-3.167 0-7.484.345-8.578.46-.518 6.161-.633 12.723-.633 16.178.461 0 1.497.057 2.936.057 7.888 0 27.692-.863 27.692-9.096 0-5.181-7.485-7.599-21.417-7.599zM27.176 5.37c-2.648 0-7.254.345-8.175.403-.576 2.591-1.439 7.196-2.072 12.493.633-.058 6.103-.403 8.636-.403 10.593-.115 19.69-4.605 19.69-8.06-.001-3.455-9.674-4.433-18.079-4.433zM65.629 40.085c-5.066 0-9.211-3.801-9.211-8.463 0-4.664 4.145-8.463 9.211-8.463 5.124 0 9.269 3.799 9.269 8.463 0 4.663-4.145 8.463-9.269 8.463zm0-13.127c-2.073 0-3.8 2.072-3.8 4.664 0 2.533 1.727 4.662 3.8 4.662 2.13 0 3.857-2.129 3.857-4.662.001-2.591-1.727-4.664-3.857-4.664z"/><path d="M98.328 33.177c-.806 1.611-3.339 6.908-7.657 6.908-2.015 0-4.894-2.016-7.657-4.549-2.878 2.764-5.354 4.951-5.757 5.01H77.2c-.921 0-2.36-1.268-2.418-2.016 0-.346 2.303-3.166 5.066-6.275-2.937-3.225-5.182-6.391-5.182-7.023 0-1.094 2.476-2.648 3.742-2.648.633 0 2.418 2.936 4.663 6.102 2.937-3.223 5.757-6.045 6.333-6.102h.115c1.324 0 3.109 1.439 3.224 2.59 0 .635-3.224 4.031-6.679 7.428 1.9 2.188 3.857 3.857 5.7 3.857 1.612 0 3.973-3.34 5.757-6.68.115-.344.23-.459.46-.459.403 0 .691 1.035.691 2.072.002.633-.056 1.324-.344 1.785zM118.647 42.042c-1.842 0-4.318-2.648-4.433-3.396-.288-1.439-.691-2.822-.691-12.205 0-9.097.691-15.544 1.555-19.632-2.361.115-8.406 2.246-9.154 2.246-.518 0-1.612-1.612-1.612-2.821 0-.403.115-.691.345-.806 1.209-.69 12.32-4.548 24.986-4.548 26.771 0 29.419 12.666 29.419 17.962 0 11.743-11.744 23.2-40.415 23.2zM129.01 5.715c-3.972 0-6.39.23-7.081.288-.633 2.994-1.669 8.463-2.245 14.508-.633 6.448-.749 13.53-.749 17.272 14.968-.115 31.665-4.318 31.665-18.827 0-5.527-3.743-13.241-21.59-13.241zM178.287 33.177c-1.094 2.188-4.26 6.908-9.729 6.908-7.427 0-10.075-5.125-10.075-8.463 0-4.664 4.146-8.463 9.212-8.463 3.742 0 6.735 2.072 6.735 5.295 0 3.398-3.166 5.24-6.735 5.24-1.209 0-2.418-.23-3.627-.633.519 2.188 2.36 3.223 4.49 3.223 4.549 0 6.794-2.59 8.924-6.506.173-.344.23-.459.461-.459.402 0 .69 1.035.69 2.072 0 .634-.058 1.325-.346 1.786zm-10.593-6.219c-1.899 0-3.569 1.785-3.8 4.088.403.172 1.094.23 1.843.23 1.957 0 4.433-.576 4.433-2.246 0-1.554-1.209-2.072-2.476-2.072z"/><path d="M189.282 33.177c-.863 1.611-3.397 6.908-7.716 6.908-4.721 0-4.778-9.846-4.836-10.248-.173-3.512-.288-7.945-.288-13.184 0-5.354.346-11.457.691-12.205.288-.403 1.899-1.151 2.476-1.151.921 0 1.842.691 2.015.979.115.403.288 3.109.288 7.369 0 5.239-.519 12.955-.519 18.941v2.072c0 2.131.288 3.801 1.267 3.801 1.612 0 3.973-3.34 5.759-6.68.173-.344.287-.459.46-.459.403 0 .691 1.035.691 2.072v.346c0 .517-.115 1.094-.288 1.439z"/><path d="M210.237 33.177c-.806 1.611-3.339 6.908-7.656 6.908-2.476 0-4.146-1.555-5.009-4.031-1.324 1.959-3.34 4.031-6.103 4.031-3.974 0-5.816-4.146-5.816-9.615 0-1.324.23-6.102.461-6.562.346-.518 1.036-.748 2.304-.748 1.324 0 2.418.172 2.706.748.058.115.115.633.115 1.324 0 1.67-.173 4.662-.173 6.447 0 2.592.288 4.779 1.497 4.779s2.764-1.785 4.26-4.088c-.058-.633-.058-1.268-.058-1.9 0-1.324.173-6.102.461-6.562.346-.518.979-.748 2.303-.748 1.267 0 2.36.172 2.648.748.058.172.115.807.115 1.67 0 1.727-.115 4.432-.115 6.102 0 2.592.288 4.779 1.497 4.779 1.611 0 3.973-3.34 5.757-6.68.115-.344.23-.459.461-.459.402 0 .69 1.035.69 2.072.001.633-.057 1.324-.345 1.785z"/><path d="M231.479 33.177c-.807 1.611-3.34 6.908-7.657 6.908-2.015 0-4.894-2.016-7.657-4.549-2.878 2.764-5.354 4.951-5.757 5.01h-.058c-.921 0-2.36-1.268-2.418-2.016 0-.346 2.303-3.166 5.066-6.275-2.937-3.225-5.182-6.391-5.182-7.023 0-1.094 2.476-2.648 3.742-2.648.633 0 2.418 2.936 4.663 6.102 2.937-3.223 5.757-6.045 6.333-6.102h.115c1.324 0 3.108 1.439 3.224 2.59 0 .635-3.224 4.031-6.678 7.428 1.899 2.188 3.857 3.857 5.699 3.857 1.612 0 3.973-3.34 5.757-6.68.115-.344.23-.459.461-.459.403 0 .69 1.035.69 2.072.002.633-.055 1.324-.343 1.785z"/><path d="M245.985 33.177c-1.094 2.188-4.26 6.908-9.729 6.908-7.427 0-10.075-5.125-10.075-8.463 0-4.664 4.146-8.463 9.212-8.463 3.742 0 6.735 2.072 6.735 5.295 0 3.398-3.166 5.24-6.735 5.24-1.209 0-2.418-.23-3.627-.633.519 2.188 2.36 3.223 4.49 3.223 4.549 0 6.794-2.59 8.924-6.506.173-.344.23-.459.461-.459.402 0 .69 1.035.69 2.072 0 .634-.058 1.325-.346 1.786zm-10.592-6.219c-1.899 0-3.569 1.785-3.8 4.088.403.172 1.094.23 1.843.23 1.957 0 4.433-.576 4.433-2.246-.001-1.554-1.21-2.072-2.476-2.072z"/></g></svg>